<svg xmlns="http://www.w3.org/2000/svg" viewBox="0 0 160 120" role="img" aria-labelledby="titulo">
  <title id="titulo">Envio artesanal</title>
  <g fill="none" stroke="#7a3f0e" stroke-width="3" stroke-linecap="round" stroke-linejoin="round">
    <path d="M12 70h58V36H20c-5 0-8 3-8 8v26Z"/>
    <path d="M70 50h35l20 20v20H70V50Z"/>
    <path d="M105 54v17h17"/>
    <path d="M24 88a10 10 0 1 0 20 0a10 10 0 0 0-20 0Z"/>
    <path d="M93 88a10 10 0 1 0 20 0a10 10 0 0 0-20 0Z"/>
    <path d="M26 48h28M26 58h22M75 75h17"/>
    <path d="M46 38c8 15 12 28 12 42"/>
    <path d="M37 62c11-2 19 0 26 7"/>
    <path d="M51 62c-9-2-16 1-22 8"/>
  </g>
</svg>
