<svg xmlns="http://www.w3.org/2000/svg" viewBox="0 0 120 120" role="img" aria-labelledby="titulo">
  <title id="titulo">Hoja de botica</title>
  <g fill="none" stroke="#7a3f0e" stroke-width="3" stroke-linecap="round" stroke-linejoin="round">
    <path d="M33 100c22-24 33-51 35-83"/>
    <path d="M64 25c16-12 30-12 43-7c-4 21-16 35-40 38"/>
    <path d="M56 43c-17-9-31-7-43 2c8 19 22 27 43 22"/>
    <path d="M50 69c-14-4-25 0-34 11c10 12 23 15 38 6"/>
    <path d="M70 57c15-8 29-6 39 3c-6 18-19 26-39 22"/>
    <path d="M61 79c10-5 20-4 28 3c-5 12-14 18-27 15"/>
    <path d="M69 34c7 2 14 4 22 8M47 55c-7 2-14 3-22 3M73 69c8 1 15 3 23 6M45 79c-6 4-12 7-19 9"/>
  </g>
</svg>
